<svg xmlns="http://www.w3.org/2000/svg" viewBox="0 0 892 528" role="img" aria-label="Logic Gates &amp; Truth Tables">
<title>Logic Gates &amp; Truth Tables</title>
<style>
  text{font-family:'IBM Plex Mono','Consolas','Courier New',monospace;fill:var(--oe-svg-ink,#111);}
  .oe-bg{fill:var(--oe-svg-bg,#ffffff);}
  .faint{fill:var(--oe-svg-faint,#777);}
  .rule{stroke:var(--oe-svg-rule,#333);fill:none;stroke-width:1;}
  .rule-faint{stroke:var(--oe-svg-faint,#bbb);fill:none;stroke-width:1;}
  .cell{fill:var(--oe-svg-bg,#ffffff);stroke:var(--oe-svg-rule,#333);stroke-width:1;}
  .fill-faint{fill:var(--oe-svg-faint,#777);}
  .b{font-weight:700;}
</style>
<rect class="oe-bg" x="0" y="0" width="892" height="528"/>
<text x="28" y="40" font-size="26" font-weight="700">Logic Gates &amp; Truth Tables</text>
<text x="28" y="66" font-size="13" class="faint">Digital logic gates with boolean expression and truth table (0 = false, 1 = true).</text>
<text x="92" y="212" font-size="12" text-anchor="middle" font-weight="700">A</text>
<text x="128" y="212" font-size="12" text-anchor="middle" font-weight="700">B</text>
<text x="164" y="212" font-size="12" text-anchor="middle" font-weight="700">Q</text>
<rect x="28" y="96" width="200" height="200" class="rule-faint"/>
<text x="128" y="120" font-size="16" text-anchor="middle" font-weight="700">AND</text>
<text x="128" y="140" font-size="12" text-anchor="middle" class="faint">Q = A·B</text>
<rect x="100" y="156" width="44" height="36" class="cell"/>
<text x="122" y="179" font-size="14" text-anchor="middle" font-weight="700">&amp;</text>
<line x1="78" y1="166" x2="100" y2="166" class="rule"/>
<line x1="78" y1="182" x2="100" y2="182" class="rule"/>
<line x1="144" y1="174" x2="178" y2="174" class="rule"/>
<line x1="74" y1="217" x2="182" y2="217" class="rule-faint"/>
<text x="92" y="234" font-size="12" text-anchor="middle">0</text>
<text x="128" y="234" font-size="12" text-anchor="middle">0</text>
<text x="164" y="234" font-size="12" text-anchor="middle">0</text>
<text x="92" y="252" font-size="12" text-anchor="middle">0</text>
<text x="128" y="252" font-size="12" text-anchor="middle">1</text>
<text x="164" y="252" font-size="12" text-anchor="middle">0</text>
<text x="92" y="270" font-size="12" text-anchor="middle">1</text>
<text x="128" y="270" font-size="12" text-anchor="middle">0</text>
<text x="164" y="270" font-size="12" text-anchor="middle">0</text>
<text x="92" y="288" font-size="12" text-anchor="middle">1</text>
<text x="128" y="288" font-size="12" text-anchor="middle">1</text>
<text x="164" y="288" font-size="12" text-anchor="middle">1</text>
<text x="304" y="212" font-size="12" text-anchor="middle" font-weight="700">A</text>
<text x="340" y="212" font-size="12" text-anchor="middle" font-weight="700">B</text>
<text x="376" y="212" font-size="12" text-anchor="middle" font-weight="700">Q</text>
<rect x="240" y="96" width="200" height="200" class="rule-faint"/>
<text x="340" y="120" font-size="16" text-anchor="middle" font-weight="700">OR</text>
<text x="340" y="140" font-size="12" text-anchor="middle" class="faint">Q = A+B</text>
<rect x="312" y="156" width="44" height="36" class="cell"/>
<text x="334" y="179" font-size="14" text-anchor="middle" font-weight="700">&amp;</text>
<line x1="290" y1="166" x2="312" y2="166" class="rule"/>
<line x1="290" y1="182" x2="312" y2="182" class="rule"/>
<line x1="356" y1="174" x2="390" y2="174" class="rule"/>
<line x1="286" y1="217" x2="394" y2="217" class="rule-faint"/>
<text x="304" y="234" font-size="12" text-anchor="middle">0</text>
<text x="340" y="234" font-size="12" text-anchor="middle">0</text>
<text x="376" y="234" font-size="12" text-anchor="middle">0</text>
<text x="304" y="252" font-size="12" text-anchor="middle">0</text>
<text x="340" y="252" font-size="12" text-anchor="middle">1</text>
<text x="376" y="252" font-size="12" text-anchor="middle">1</text>
<text x="304" y="270" font-size="12" text-anchor="middle">1</text>
<text x="340" y="270" font-size="12" text-anchor="middle">0</text>
<text x="376" y="270" font-size="12" text-anchor="middle">1</text>
<text x="304" y="288" font-size="12" text-anchor="middle">1</text>
<text x="340" y="288" font-size="12" text-anchor="middle">1</text>
<text x="376" y="288" font-size="12" text-anchor="middle">1</text>
<text x="534" y="212" font-size="12" text-anchor="middle" font-weight="700">A</text>
<text x="570" y="212" font-size="12" text-anchor="middle" font-weight="700">Q</text>
<rect x="452" y="96" width="200" height="200" class="rule-faint"/>
<text x="552" y="120" font-size="16" text-anchor="middle" font-weight="700">NOT</text>
<text x="552" y="140" font-size="12" text-anchor="middle" class="faint">Q = ¬A</text>
<rect x="524" y="156" width="44" height="36" class="cell"/>
<text x="546" y="179" font-size="14" text-anchor="middle" font-weight="700">1</text>
<line x1="502" y1="166" x2="524" y2="166" class="rule"/>
<circle cx="574" cy="174" r="5" class="cell"/>
<line x1="579" y1="174" x2="602" y2="174" class="rule"/>
<line x1="516" y1="217" x2="588" y2="217" class="rule-faint"/>
<text x="534" y="234" font-size="12" text-anchor="middle">0</text>
<text x="570" y="234" font-size="12" text-anchor="middle">1</text>
<text x="534" y="252" font-size="12" text-anchor="middle">1</text>
<text x="570" y="252" font-size="12" text-anchor="middle">0</text>
<text x="728" y="212" font-size="12" text-anchor="middle" font-weight="700">A</text>
<text x="764" y="212" font-size="12" text-anchor="middle" font-weight="700">B</text>
<text x="800" y="212" font-size="12" text-anchor="middle" font-weight="700">Q</text>
<rect x="664" y="96" width="200" height="200" class="rule-faint"/>
<text x="764" y="120" font-size="16" text-anchor="middle" font-weight="700">NAND</text>
<text x="764" y="140" font-size="12" text-anchor="middle" class="faint">Q = ¬(A·B)</text>
<rect x="736" y="156" width="44" height="36" class="cell"/>
<text x="758" y="179" font-size="14" text-anchor="middle" font-weight="700">&amp;</text>
<line x1="714" y1="166" x2="736" y2="166" class="rule"/>
<line x1="714" y1="182" x2="736" y2="182" class="rule"/>
<circle cx="786" cy="174" r="5" class="cell"/>
<line x1="791" y1="174" x2="814" y2="174" class="rule"/>
<line x1="710" y1="217" x2="818" y2="217" class="rule-faint"/>
<text x="728" y="234" font-size="12" text-anchor="middle">0</text>
<text x="764" y="234" font-size="12" text-anchor="middle">0</text>
<text x="800" y="234" font-size="12" text-anchor="middle">1</text>
<text x="728" y="252" font-size="12" text-anchor="middle">0</text>
<text x="764" y="252" font-size="12" text-anchor="middle">1</text>
<text x="800" y="252" font-size="12" text-anchor="middle">1</text>
<text x="728" y="270" font-size="12" text-anchor="middle">1</text>
<text x="764" y="270" font-size="12" text-anchor="middle">0</text>
<text x="800" y="270" font-size="12" text-anchor="middle">1</text>
<text x="728" y="288" font-size="12" text-anchor="middle">1</text>
<text x="764" y="288" font-size="12" text-anchor="middle">1</text>
<text x="800" y="288" font-size="12" text-anchor="middle">0</text>
<text x="92" y="428" font-size="12" text-anchor="middle" font-weight="700">A</text>
<text x="128" y="428" font-size="12" text-anchor="middle" font-weight="700">B</text>
<text x="164" y="428" font-size="12" text-anchor="middle" font-weight="700">Q</text>
<rect x="28" y="312" width="200" height="200" class="rule-faint"/>
<text x="128" y="336" font-size="16" text-anchor="middle" font-weight="700">NOR</text>
<text x="128" y="356" font-size="12" text-anchor="middle" class="faint">Q = ¬(A+B)</text>
<rect x="100" y="372" width="44" height="36" class="cell"/>
<text x="122" y="395" font-size="14" text-anchor="middle" font-weight="700">&amp;</text>
<line x1="78" y1="382" x2="100" y2="382" class="rule"/>
<line x1="78" y1="398" x2="100" y2="398" class="rule"/>
<circle cx="150" cy="390" r="5" class="cell"/>
<line x1="155" y1="390" x2="178" y2="390" class="rule"/>
<line x1="74" y1="433" x2="182" y2="433" class="rule-faint"/>
<text x="92" y="450" font-size="12" text-anchor="middle">0</text>
<text x="128" y="450" font-size="12" text-anchor="middle">0</text>
<text x="164" y="450" font-size="12" text-anchor="middle">1</text>
<text x="92" y="468" font-size="12" text-anchor="middle">0</text>
<text x="128" y="468" font-size="12" text-anchor="middle">1</text>
<text x="164" y="468" font-size="12" text-anchor="middle">0</text>
<text x="92" y="486" font-size="12" text-anchor="middle">1</text>
<text x="128" y="486" font-size="12" text-anchor="middle">0</text>
<text x="164" y="486" font-size="12" text-anchor="middle">0</text>
<text x="92" y="504" font-size="12" text-anchor="middle">1</text>
<text x="128" y="504" font-size="12" text-anchor="middle">1</text>
<text x="164" y="504" font-size="12" text-anchor="middle">0</text>
<text x="304" y="428" font-size="12" text-anchor="middle" font-weight="700">A</text>
<text x="340" y="428" font-size="12" text-anchor="middle" font-weight="700">B</text>
<text x="376" y="428" font-size="12" text-anchor="middle" font-weight="700">Q</text>
<rect x="240" y="312" width="200" height="200" class="rule-faint"/>
<text x="340" y="336" font-size="16" text-anchor="middle" font-weight="700">XOR</text>
<text x="340" y="356" font-size="12" text-anchor="middle" class="faint">Q = A⊕B</text>
<rect x="312" y="372" width="44" height="36" class="cell"/>
<text x="334" y="395" font-size="14" text-anchor="middle" font-weight="700">&amp;</text>
<line x1="290" y1="382" x2="312" y2="382" class="rule"/>
<line x1="290" y1="398" x2="312" y2="398" class="rule"/>
<line x1="356" y1="390" x2="390" y2="390" class="rule"/>
<line x1="286" y1="433" x2="394" y2="433" class="rule-faint"/>
<text x="304" y="450" font-size="12" text-anchor="middle">0</text>
<text x="340" y="450" font-size="12" text-anchor="middle">0</text>
<text x="376" y="450" font-size="12" text-anchor="middle">0</text>
<text x="304" y="468" font-size="12" text-anchor="middle">0</text>
<text x="340" y="468" font-size="12" text-anchor="middle">1</text>
<text x="376" y="468" font-size="12" text-anchor="middle">1</text>
<text x="304" y="486" font-size="12" text-anchor="middle">1</text>
<text x="340" y="486" font-size="12" text-anchor="middle">0</text>
<text x="376" y="486" font-size="12" text-anchor="middle">1</text>
<text x="304" y="504" font-size="12" text-anchor="middle">1</text>
<text x="340" y="504" font-size="12" text-anchor="middle">1</text>
<text x="376" y="504" font-size="12" text-anchor="middle">0</text>
<text x="516" y="428" font-size="12" text-anchor="middle" font-weight="700">A</text>
<text x="552" y="428" font-size="12" text-anchor="middle" font-weight="700">B</text>
<text x="588" y="428" font-size="12" text-anchor="middle" font-weight="700">Q</text>
<rect x="452" y="312" width="200" height="200" class="rule-faint"/>
<text x="552" y="336" font-size="16" text-anchor="middle" font-weight="700">XNOR</text>
<text x="552" y="356" font-size="12" text-anchor="middle" class="faint">Q = ¬(A⊕B)</text>
<rect x="524" y="372" width="44" height="36" class="cell"/>
<text x="546" y="395" font-size="14" text-anchor="middle" font-weight="700">&amp;</text>
<line x1="502" y1="382" x2="524" y2="382" class="rule"/>
<line x1="502" y1="398" x2="524" y2="398" class="rule"/>
<circle cx="574" cy="390" r="5" class="cell"/>
<line x1="579" y1="390" x2="602" y2="390" class="rule"/>
<line x1="498" y1="433" x2="606" y2="433" class="rule-faint"/>
<text x="516" y="450" font-size="12" text-anchor="middle">0</text>
<text x="552" y="450" font-size="12" text-anchor="middle">0</text>
<text x="588" y="450" font-size="12" text-anchor="middle">1</text>
<text x="516" y="468" font-size="12" text-anchor="middle">0</text>
<text x="552" y="468" font-size="12" text-anchor="middle">1</text>
<text x="588" y="468" font-size="12" text-anchor="middle">0</text>
<text x="516" y="486" font-size="12" text-anchor="middle">1</text>
<text x="552" y="486" font-size="12" text-anchor="middle">0</text>
<text x="588" y="486" font-size="12" text-anchor="middle">0</text>
<text x="516" y="504" font-size="12" text-anchor="middle">1</text>
<text x="552" y="504" font-size="12" text-anchor="middle">1</text>
<text x="588" y="504" font-size="12" text-anchor="middle">1</text>
</svg>
